<mxfile host="app.diagrams.net" modified="2023-03-03T14:54:49.666Z" agent="5.0 (Windows NT 10.0; Win64; x64) AppleWebKit/537.36 (KHTML, like Gecko) Chrome/110.0.0.0 Safari/537.36" etag="e6RrNsApbmYfrmD3zuqJ" version="20.8.20" type="github">
  <diagram name="Página-1" id="BHUgIDKRnHg-_avpcEPd">
    <mxGraphModel dx="1877" dy="619" grid="1" gridSize="10" guides="1" tooltips="1" connect="1" arrows="1" fold="1" page="1" pageScale="1" pageWidth="827" pageHeight="1169" math="0" shadow="0">
      <root>
        <mxCell id="0" />
        <mxCell id="1" parent="0" />
        <mxCell id="F4awPcP-2oAEoT8iqaBO-2" value="CPF" style="rounded=0;whiteSpace=wrap;html=1;" vertex="1" parent="1">
          <mxGeometry x="60" y="140" width="70" height="40" as="geometry" />
        </mxCell>
        <mxCell id="F4awPcP-2oAEoT8iqaBO-4" value="" style="endArrow=none;html=1;rounded=0;" edge="1" parent="1">
          <mxGeometry width="50" height="50" relative="1" as="geometry">
            <mxPoint x="79" y="166" as="sourcePoint" />
            <mxPoint x="108" y="166" as="targetPoint" />
            <Array as="points">
              <mxPoint x="90" y="166" />
            </Array>
          </mxGeometry>
        </mxCell>
        <mxCell id="F4awPcP-2oAEoT8iqaBO-5" value="Nome" style="rounded=0;whiteSpace=wrap;html=1;" vertex="1" parent="1">
          <mxGeometry x="130" y="140" width="70" height="40" as="geometry" />
        </mxCell>
        <mxCell id="F4awPcP-2oAEoT8iqaBO-6" value="Endereço" style="rounded=0;whiteSpace=wrap;html=1;" vertex="1" parent="1">
          <mxGeometry x="200" y="140" width="90" height="40" as="geometry" />
        </mxCell>
        <mxCell id="F4awPcP-2oAEoT8iqaBO-7" value="Telefone" style="rounded=0;whiteSpace=wrap;html=1;" vertex="1" parent="1">
          <mxGeometry x="290" y="140" width="90" height="40" as="geometry" />
        </mxCell>
        <mxCell id="F4awPcP-2oAEoT8iqaBO-8" value="Salário" style="rounded=0;whiteSpace=wrap;html=1;" vertex="1" parent="1">
          <mxGeometry x="380" y="140" width="90" height="40" as="geometry" />
        </mxCell>
        <mxCell id="F4awPcP-2oAEoT8iqaBO-13" value="Funcionário" style="rounded=0;whiteSpace=wrap;html=1;" vertex="1" parent="1">
          <mxGeometry x="60" y="220" width="120" height="40" as="geometry" />
        </mxCell>
        <mxCell id="F4awPcP-2oAEoT8iqaBO-16" value="" style="endArrow=none;html=1;rounded=0;" edge="1" parent="1">
          <mxGeometry width="50" height="50" relative="1" as="geometry">
            <mxPoint x="80" y="248" as="sourcePoint" />
            <mxPoint x="160" y="248" as="targetPoint" />
          </mxGeometry>
        </mxCell>
        <mxCell id="F4awPcP-2oAEoT8iqaBO-17" value="CPF" style="rounded=0;whiteSpace=wrap;html=1;" vertex="1" parent="1">
          <mxGeometry x="180" y="220" width="70" height="40" as="geometry" />
        </mxCell>
        <mxCell id="F4awPcP-2oAEoT8iqaBO-18" value="" style="endArrow=none;html=1;rounded=0;" edge="1" parent="1">
          <mxGeometry width="50" height="50" relative="1" as="geometry">
            <mxPoint x="200" y="246" as="sourcePoint" />
            <mxPoint x="229" y="246" as="targetPoint" />
            <Array as="points">
              <mxPoint x="211" y="246" />
            </Array>
          </mxGeometry>
        </mxCell>
        <mxCell id="F4awPcP-2oAEoT8iqaBO-20" value="Nome" style="rounded=0;whiteSpace=wrap;html=1;" vertex="1" parent="1">
          <mxGeometry x="250" y="220" width="70" height="40" as="geometry" />
        </mxCell>
        <mxCell id="F4awPcP-2oAEoT8iqaBO-21" value="Sexo" style="rounded=0;whiteSpace=wrap;html=1;" vertex="1" parent="1">
          <mxGeometry x="320" y="220" width="70" height="40" as="geometry" />
        </mxCell>
        <mxCell id="F4awPcP-2oAEoT8iqaBO-22" value="Data de nascimento" style="rounded=0;whiteSpace=wrap;html=1;" vertex="1" parent="1">
          <mxGeometry x="390" y="220" width="120" height="40" as="geometry" />
        </mxCell>
        <mxCell id="F4awPcP-2oAEoT8iqaBO-23" value="Grau de parentesco" style="rounded=0;whiteSpace=wrap;html=1;" vertex="1" parent="1">
          <mxGeometry x="510" y="220" width="120" height="40" as="geometry" />
        </mxCell>
        <mxCell id="F4awPcP-2oAEoT8iqaBO-96" style="edgeStyle=orthogonalEdgeStyle;rounded=0;orthogonalLoop=1;jettySize=auto;html=1;entryX=0;entryY=0.75;entryDx=0;entryDy=0;strokeWidth=1;" edge="1" parent="1">
          <mxGeometry relative="1" as="geometry">
            <mxPoint x="100" y="331" as="sourcePoint" />
            <mxPoint x="60" y="401" as="targetPoint" />
            <Array as="points">
              <mxPoint x="100" y="350" />
              <mxPoint x="40" y="350" />
              <mxPoint x="40" y="401" />
            </Array>
          </mxGeometry>
        </mxCell>
        <mxCell id="F4awPcP-2oAEoT8iqaBO-24" value="Sigla" style="rounded=0;whiteSpace=wrap;html=1;" vertex="1" parent="1">
          <mxGeometry x="60" y="300" width="80" height="40" as="geometry" />
        </mxCell>
        <mxCell id="F4awPcP-2oAEoT8iqaBO-25" value="Nome" style="rounded=0;whiteSpace=wrap;html=1;" vertex="1" parent="1">
          <mxGeometry x="140" y="300" width="70" height="40" as="geometry" />
        </mxCell>
        <mxCell id="F4awPcP-2oAEoT8iqaBO-26" value="Local" style="rounded=0;whiteSpace=wrap;html=1;" vertex="1" parent="1">
          <mxGeometry x="210" y="300" width="70" height="40" as="geometry" />
        </mxCell>
        <mxCell id="F4awPcP-2oAEoT8iqaBO-30" value="Funcionário" style="text;html=1;align=center;verticalAlign=middle;resizable=0;points=[];autosize=1;strokeColor=none;fillColor=none;" vertex="1" parent="1">
          <mxGeometry x="50" y="110" width="90" height="30" as="geometry" />
        </mxCell>
        <mxCell id="F4awPcP-2oAEoT8iqaBO-31" value="Dependentes" style="text;html=1;align=center;verticalAlign=middle;resizable=0;points=[];autosize=1;strokeColor=none;fillColor=none;" vertex="1" parent="1">
          <mxGeometry x="50" y="190" width="90" height="30" as="geometry" />
        </mxCell>
        <mxCell id="F4awPcP-2oAEoT8iqaBO-32" value="Departamento" style="text;html=1;align=center;verticalAlign=middle;resizable=0;points=[];autosize=1;strokeColor=none;fillColor=none;" vertex="1" parent="1">
          <mxGeometry x="50" y="270" width="100" height="30" as="geometry" />
        </mxCell>
        <mxCell id="F4awPcP-2oAEoT8iqaBO-33" value="Cidade" style="rounded=0;whiteSpace=wrap;html=1;" vertex="1" parent="1">
          <mxGeometry x="280" y="300" width="70" height="40" as="geometry" />
        </mxCell>
        <mxCell id="F4awPcP-2oAEoT8iqaBO-35" value="Estado" style="rounded=0;whiteSpace=wrap;html=1;" vertex="1" parent="1">
          <mxGeometry x="350" y="300" width="70" height="40" as="geometry" />
        </mxCell>
        <mxCell id="F4awPcP-2oAEoT8iqaBO-36" value="País" style="rounded=0;whiteSpace=wrap;html=1;" vertex="1" parent="1">
          <mxGeometry x="420" y="300" width="70" height="40" as="geometry" />
        </mxCell>
        <mxCell id="F4awPcP-2oAEoT8iqaBO-37" value="Sexo" style="rounded=0;whiteSpace=wrap;html=1;" vertex="1" parent="1">
          <mxGeometry x="470" y="140" width="70" height="40" as="geometry" />
        </mxCell>
        <mxCell id="F4awPcP-2oAEoT8iqaBO-38" value="Supervisor" style="rounded=0;whiteSpace=wrap;html=1;" vertex="1" parent="1">
          <mxGeometry x="650" y="140" width="100" height="40" as="geometry" />
        </mxCell>
        <mxCell id="F4awPcP-2oAEoT8iqaBO-41" value="Projeto" style="text;html=1;align=center;verticalAlign=middle;resizable=0;points=[];autosize=1;strokeColor=none;fillColor=none;" vertex="1" parent="1">
          <mxGeometry x="50" y="350" width="60" height="30" as="geometry" />
        </mxCell>
        <mxCell id="F4awPcP-2oAEoT8iqaBO-42" value="" style="endArrow=none;html=1;rounded=0;" edge="1" parent="1">
          <mxGeometry width="50" height="50" relative="1" as="geometry">
            <mxPoint x="85" y="328" as="sourcePoint" />
            <mxPoint x="114" y="328" as="targetPoint" />
            <Array as="points">
              <mxPoint x="96" y="328" />
            </Array>
          </mxGeometry>
        </mxCell>
        <mxCell id="F4awPcP-2oAEoT8iqaBO-44" value="Sigla" style="rounded=0;whiteSpace=wrap;html=1;" vertex="1" parent="1">
          <mxGeometry x="60" y="380" width="80" height="40" as="geometry" />
        </mxCell>
        <mxCell id="F4awPcP-2oAEoT8iqaBO-46" value="" style="endArrow=none;html=1;rounded=0;" edge="1" parent="1">
          <mxGeometry width="50" height="50" relative="1" as="geometry">
            <mxPoint x="85.5" y="408" as="sourcePoint" />
            <mxPoint x="114.5" y="408" as="targetPoint" />
            <Array as="points">
              <mxPoint x="96.5" y="408" />
            </Array>
          </mxGeometry>
        </mxCell>
        <mxCell id="F4awPcP-2oAEoT8iqaBO-47" value="Nome" style="rounded=0;whiteSpace=wrap;html=1;" vertex="1" parent="1">
          <mxGeometry x="140" y="380" width="70" height="40" as="geometry" />
        </mxCell>
        <mxCell id="F4awPcP-2oAEoT8iqaBO-48" value="Data de conclusão" style="rounded=0;whiteSpace=wrap;html=1;" vertex="1" parent="1">
          <mxGeometry x="210" y="380" width="120" height="40" as="geometry" />
        </mxCell>
        <mxCell id="F4awPcP-2oAEoT8iqaBO-57" value="" style="endArrow=classic;html=1;rounded=0;" edge="1" parent="1">
          <mxGeometry width="50" height="50" relative="1" as="geometry">
            <mxPoint x="10" y="320" as="sourcePoint" />
            <mxPoint x="60" y="320" as="targetPoint" />
          </mxGeometry>
        </mxCell>
        <mxCell id="F4awPcP-2oAEoT8iqaBO-58" value="" style="endArrow=none;html=1;rounded=0;" edge="1" parent="1">
          <mxGeometry width="50" height="50" relative="1" as="geometry">
            <mxPoint x="9" y="320" as="sourcePoint" />
            <mxPoint x="9" y="260" as="targetPoint" />
            <Array as="points" />
          </mxGeometry>
        </mxCell>
        <mxCell id="F4awPcP-2oAEoT8iqaBO-60" value="" style="endArrow=none;html=1;rounded=0;" edge="1" parent="1">
          <mxGeometry width="50" height="50" relative="1" as="geometry">
            <mxPoint x="9" y="260" as="sourcePoint" />
            <mxPoint x="9" y="160" as="targetPoint" />
            <Array as="points" />
          </mxGeometry>
        </mxCell>
        <mxCell id="F4awPcP-2oAEoT8iqaBO-61" value="" style="endArrow=none;html=1;rounded=0;" edge="1" parent="1">
          <mxGeometry width="50" height="50" relative="1" as="geometry">
            <mxPoint x="10" y="160" as="sourcePoint" />
            <mxPoint x="60" y="160" as="targetPoint" />
          </mxGeometry>
        </mxCell>
        <mxCell id="F4awPcP-2oAEoT8iqaBO-62" value="" style="endArrow=none;html=1;rounded=0;" edge="1" parent="1">
          <mxGeometry width="50" height="50" relative="1" as="geometry">
            <mxPoint x="29" y="171" as="sourcePoint" />
            <mxPoint x="60" y="171" as="targetPoint" />
          </mxGeometry>
        </mxCell>
        <mxCell id="F4awPcP-2oAEoT8iqaBO-64" value="" style="endArrow=none;html=1;rounded=0;" edge="1" parent="1">
          <mxGeometry width="50" height="50" relative="1" as="geometry">
            <mxPoint x="29" y="240" as="sourcePoint" />
            <mxPoint x="29" y="170" as="targetPoint" />
            <Array as="points" />
          </mxGeometry>
        </mxCell>
        <mxCell id="F4awPcP-2oAEoT8iqaBO-65" value="" style="endArrow=classic;html=1;rounded=0;" edge="1" parent="1">
          <mxGeometry width="50" height="50" relative="1" as="geometry">
            <mxPoint x="30" y="240" as="sourcePoint" />
            <mxPoint x="60" y="240" as="targetPoint" />
          </mxGeometry>
        </mxCell>
        <mxCell id="F4awPcP-2oAEoT8iqaBO-67" value="Gerente" style="rounded=0;whiteSpace=wrap;html=1;" vertex="1" parent="1">
          <mxGeometry x="490" y="300" width="120" height="40" as="geometry" />
        </mxCell>
        <mxCell id="F4awPcP-2oAEoT8iqaBO-68" value="Departamento" style="rounded=0;whiteSpace=wrap;html=1;" vertex="1" parent="1">
          <mxGeometry x="540" y="140" width="120" height="40" as="geometry" />
        </mxCell>
        <mxCell id="F4awPcP-2oAEoT8iqaBO-79" value="" style="endArrow=none;html=1;rounded=0;strokeWidth=1;" edge="1" parent="1">
          <mxGeometry width="50" height="50" relative="1" as="geometry">
            <mxPoint x="703" y="139" as="sourcePoint" />
            <mxPoint x="703" y="100" as="targetPoint" />
          </mxGeometry>
        </mxCell>
        <mxCell id="F4awPcP-2oAEoT8iqaBO-80" value="" style="endArrow=none;html=1;rounded=0;" edge="1" parent="1">
          <mxGeometry width="50" height="50" relative="1" as="geometry">
            <mxPoint x="10" y="99" as="sourcePoint" />
            <mxPoint x="702" y="99" as="targetPoint" />
          </mxGeometry>
        </mxCell>
        <mxCell id="F4awPcP-2oAEoT8iqaBO-81" value="" style="endArrow=none;html=1;rounded=0;strokeWidth=1;" edge="1" parent="1">
          <mxGeometry width="50" height="50" relative="1" as="geometry">
            <mxPoint x="10" y="150" as="sourcePoint" />
            <mxPoint x="10" y="100" as="targetPoint" />
          </mxGeometry>
        </mxCell>
        <mxCell id="F4awPcP-2oAEoT8iqaBO-83" value="" style="endArrow=classic;html=1;rounded=0;" edge="1" parent="1">
          <mxGeometry width="50" height="50" relative="1" as="geometry">
            <mxPoint x="10" y="152" as="sourcePoint" />
            <mxPoint x="60" y="152" as="targetPoint" />
          </mxGeometry>
        </mxCell>
        <mxCell id="F4awPcP-2oAEoT8iqaBO-91" value="" style="endArrow=none;html=1;rounded=0;strokeWidth=1;edgeStyle=orthogonalEdgeStyle;" edge="1" parent="1">
          <mxGeometry width="50" height="50" relative="1" as="geometry">
            <mxPoint x="730" y="320" as="sourcePoint" />
            <mxPoint x="780" y="60" as="targetPoint" />
          </mxGeometry>
        </mxCell>
        <mxCell id="F4awPcP-2oAEoT8iqaBO-92" value="" style="endArrow=none;html=1;rounded=0;strokeWidth=1;" edge="1" parent="1">
          <mxGeometry width="50" height="50" relative="1" as="geometry">
            <mxPoint x="610" y="320" as="sourcePoint" />
            <mxPoint x="730" y="320" as="targetPoint" />
          </mxGeometry>
        </mxCell>
        <mxCell id="F4awPcP-2oAEoT8iqaBO-93" value="" style="endArrow=none;html=1;rounded=0;" edge="1" parent="1">
          <mxGeometry width="50" height="50" relative="1" as="geometry">
            <mxPoint x="30" y="60" as="sourcePoint" />
            <mxPoint x="779" y="60" as="targetPoint" />
          </mxGeometry>
        </mxCell>
        <mxCell id="F4awPcP-2oAEoT8iqaBO-94" value="" style="endArrow=none;html=1;rounded=0;strokeWidth=1;" edge="1" parent="1">
          <mxGeometry width="50" height="50" relative="1" as="geometry">
            <mxPoint x="30" y="140" as="sourcePoint" />
            <mxPoint x="30" y="60" as="targetPoint" />
          </mxGeometry>
        </mxCell>
        <mxCell id="F4awPcP-2oAEoT8iqaBO-95" value="" style="endArrow=classic;html=1;rounded=0;" edge="1" parent="1">
          <mxGeometry width="50" height="50" relative="1" as="geometry">
            <mxPoint x="30" y="143" as="sourcePoint" />
            <mxPoint x="61" y="143" as="targetPoint" />
          </mxGeometry>
        </mxCell>
        <mxCell id="F4awPcP-2oAEoT8iqaBO-98" value="Departamento" style="rounded=0;whiteSpace=wrap;html=1;" vertex="1" parent="1">
          <mxGeometry x="60" y="450" width="120" height="40" as="geometry" />
        </mxCell>
        <mxCell id="F4awPcP-2oAEoT8iqaBO-99" value="" style="endArrow=none;html=1;rounded=0;" edge="1" parent="1">
          <mxGeometry width="50" height="50" relative="1" as="geometry">
            <mxPoint x="80" y="477" as="sourcePoint" />
            <mxPoint x="160" y="477" as="targetPoint" />
          </mxGeometry>
        </mxCell>
        <mxCell id="F4awPcP-2oAEoT8iqaBO-100" value="Desenvolver" style="text;html=1;align=center;verticalAlign=middle;resizable=0;points=[];autosize=1;strokeColor=none;fillColor=none;" vertex="1" parent="1">
          <mxGeometry x="50" y="420" width="90" height="30" as="geometry" />
        </mxCell>
        <mxCell id="F4awPcP-2oAEoT8iqaBO-101" value="Horas" style="rounded=0;whiteSpace=wrap;html=1;" vertex="1" parent="1">
          <mxGeometry x="181" y="450" width="70" height="40" as="geometry" />
        </mxCell>
        <mxCell id="F4awPcP-2oAEoT8iqaBO-104" value="" style="endArrow=none;html=1;rounded=0;" edge="1" parent="1">
          <mxGeometry width="50" height="50" relative="1" as="geometry">
            <mxPoint y="470" as="sourcePoint" />
            <mxPoint y="160" as="targetPoint" />
            <Array as="points" />
          </mxGeometry>
        </mxCell>
        <mxCell id="F4awPcP-2oAEoT8iqaBO-106" value="" style="endArrow=none;html=1;rounded=0;" edge="1" parent="1">
          <mxGeometry width="50" height="50" relative="1" as="geometry">
            <mxPoint x="1" y="160" as="sourcePoint" />
            <mxPoint x="32" y="160" as="targetPoint" />
          </mxGeometry>
        </mxCell>
        <mxCell id="F4awPcP-2oAEoT8iqaBO-107" value="" style="endArrow=classic;html=1;rounded=0;" edge="1" parent="1">
          <mxGeometry width="50" height="50" relative="1" as="geometry">
            <mxPoint y="471" as="sourcePoint" />
            <mxPoint x="61" y="471" as="targetPoint" />
          </mxGeometry>
        </mxCell>
      </root>
    </mxGraphModel>
  </diagram>
</mxfile>
